<?xml version="1.0" encoding="utf-8"?><svg viewBox="0 0 800 800" xmlns="http://www.w3.org/2000/svg" xmlns:xlink="http://www.w3.org/1999/xlink"><style>:root>svg{display:none}:root>svg:target{display:block}</style><svg viewBox="0 0 1024 1024" class="aicon" id="diving" xmlns="http://www.w3.org/2000/svg"><path d="m737 199-48-13 48-13 13-49 13 49 49 13-49 13-13 48-13-48zm48 53-19-5 19-4 4-19 5 19 18 4-18 5-5 18-4-18z" fill="#FDCD60"/><path d="M210 252a9 9 0 1 0 18 0 9 9 0 1 0-18 0Z" fill="#5546CB"/><path d="m190 858-33-8 33-7 7-33 8 33 32 7-32 8-8 32-7-32zM142 588l-3 15-15 3 15 3 3 15 3-15 15-3-15-3-3-15z" fill="#FDCD60"/><path d="M519 561c-9-8-12-8-13-8s-21 19-32 35-17 25-28 37a167 167 0 0 0 30 10c24 5 48 5 68-1a167 167 0 0 0 30-13c-11-11-21-22-30-33s-18-20-25-27z" fill="#AFBCF3"/><path d="M760 535c-8-83-34-94-43-97-26-8-100-10-179-10s-174 3-221 5c-20 1-35 8-45 20s-19 41-19 66a28 28 0 0 1 1 8v30c1 11 2 21 3 30 6 46 54 54 125 51 33-1 55-34 76-63s30-43 48-44 33 18 54 42 54 63 87 65c44 3 76-6 95-25s21-43 18-78z" fill="#FDCD60"/><path d="M213 521h21v42.95h-21V521ZM781 521h21v42.95h-21V521Z" fill="#FF8859"/><path d="M755 628c12-12 20-28 23-46l11 2h5a28 28 0 0 0 28-28v-27a28 28 0 0 0-20-27c7-54-3-99-30-133s-57-49-103-63-102-20-170-19-126 8-171 22-79 36-100 64-31 78-20 131a28 28 0 0 0-15 25v27a28 28 0 0 0 28 28h5l10-2v9c4 30 21 51 53 61 20 7 44 8 68 8h25c19-1 34-9 48-20a188 188 0 0 0 41 14 172 172 0 0 0 37 4 144 144 0 0 0 42-6 195 195 0 0 0 40-18c17 14 35 24 56 25 49 3 86-7 109-31zm39-107a8 8 0 0 1 8 8v27a8 8 0 0 1-8 8h-5a8 8 0 0 1-8-8v-27a8 8 0 0 1 8-8zm-561 35a8 8 0 0 1-8 8h-5a8 8 0 0 1-8-8v-27a8 8 0 0 1 8-8h5a8 8 0 0 1 8 8zm0-54h-6c-5-21-7-41-5-58s9-42 21-58c37-50 123-76 255-78s217 24 257 74c14 17 23 38 26 62s2 38-1 59l-5 2c-6-31-19-72-52-84h-1c-25-8-90-11-193-11-82 0-169 3-215 5-25 1-45 10-59 27s-19 37-22 60zm310 131c-20 6-45 7-68 1a167 167 0 0 1-30-10c11-12 20-25 28-37s24-35 32-35 5 0 13 8 16 16 24 26 19 22 30 33a167 167 0 0 1-29 14zm102 6c-33-2-63-37-87-65s-37-43-54-42-32 21-48 44-43 62-76 63c-71 3-119-5-125-51-1-8-2-19-3-30v-29a28 28 0 0 0-1-8c1-25 6-50 19-66s25-19 45-20c48-3 138-5 221-5s154 3 179 10c9 3 35 14 43 97 3 35-3 61-20 79s-48 26-93 23z" fill="#5546CB"/><path d="M536 705a13 13 0 1 0 13 13 13 13 0 0 0-13-13z" fill="#FFF"/><path d="M536 693a25 25 0 1 0 25 25 25 25 0 0 0-25-25zm0 37a13 13 0 1 1 13-13 13 13 0 0 1-13 13z" fill="#5546CB"/><path d="M442 762a19 19 0 1 0 19 19 19 19 0 0 0-19-19z" fill="#FFF"/><path d="M442 747a34 34 0 1 0 34 34 34 34 0 0 0-34-34zm0 53a19 19 0 1 1 19-19 19 19 0 0 1-19 19z" fill="#5546CB"/><path d="M303 717a33 33 0 1 0 33 33 33 33 0 0 0-33-33z" fill="#FFF"/><path d="M303 697a53 53 0 1 0 53 53 53 53 0 0 0-53-53zm0 86a33 33 0 1 1 33-33 33 33 0 0 1-33 32z" fill="#5546CB"/><path d="M878 827V274c0-2-6-12-14-12s-14 5-14 12v549h-98v-45h9a8 8 0 0 0-1-16h-34a8 8 0 0 0-1 16h9v44h-9a18 18 0 0 0 2 35h140c3 0 7 0 9-2s3-12 3-26zm0-130h-27V592h27zm0-262h-27V330h27z" fill="#AFBCF3"/><path d="M898 830V273c0-17-15-32-34-32s-34 14-34 32v530h-58v-9a28 28 0 0 0-12-53h-34a28 28 0 0 0-12 53v11a38 38 0 0 0 14 72h139c6 0 16-1 23-8s8-20 8-39zm-23 26c-2 2-6 2-9 2H728a18 18 0 0 1-2-35h9v-45h-9a8 8 0 0 1 1-16h33a8 8 0 0 1 1 16h-9v45h98V273c0-6 6-12 14-12s14 5 14 12v557c0 14 0 23-3 26z" fill="#5546CB"/><path d="M851 330h27v104.75h-27z" fill="#FFF"/><path d="M851 592h27v104.75h-27z" fill="#FF8859"/></svg><svg viewBox="0 0 1024 1024" class="bicon" id="hot-air" xmlns="http://www.w3.org/2000/svg"><path d="m817 154-48-13 48-13 13-49 13 49 48 13-48 13-13 48-13-48zm48 52-19-4 19-4 4-19 5 19 18 4-18 4-5 19-4-19zM185 698l-20-5 20-5 5-21 5 21 21 5-21 5-5 21-5-21z" fill="#FDCD60"/><path d="M137 240a9 9 0 1 0 18 0 9 9 0 1 0-18 0Z" fill="#5546CB"/><path d="m255 796-28-6 28-7 6-27 7 27 27 7-27 6-7 27-6-27z" fill="#FDCD60"/><path d="M765 760a25 25 0 1 1 25-25 25 25 0 0 1-25 25zm0-36a10 10 0 1 0 10 10 10 10 0 0 0-10-9z" fill="#5546CB"/><path d="M263 565a25 25 0 0 1-1-5c0-14 12-26 27-26s25 10 27 23l11-3c15 0 27 11 27 26s-6 26-21 26l-67 11c-10 1-13 0-14-3a26 26 0 0 1-15-23c0-14 12-26 27-26zM485 115c-23 30-56 137-52 280 2 63 17 183 54 350h1c37-167 55-287 57-350 5-144-35-251-58-280h-2zm32 2c40 6 76 17 107 35a269 269 0 0 0-107-35zM266 502a465 465 0 0 1-25-47 406 406 0 0 0 25 47zm220 244zM373 140c24-11 51-18 81-23a270 270 0 0 0-81 23z" fill="#FFF"/><path d="M493 115h-1c6 2 19 9 45 24 43 25 101 110 95 229-5 85-37 216-142 376l46-43c123-124 171-266 180-309a253 253 0 0 0 5-34c-7 0-14-1-18-7a44 44 0 0 1-23-39c0-19 12-35 29-41-32-77-111-131-216-156zm-53 589 46 42h2C381 585 340 457 339 372c-2-129 30-176 78-214s57-40 65-43h-1c-165 41-254 164-229 286 4 21 19 64 47 117a43 43 0 0 1 28 19c24 0 44 19 44 43 0 13-4 24-11 32a816 816 0 0 0 80 92z" fill="#FFF"/><path d="M491 115zm-1 629c17-14 32-28 47-43l-46 43zm-2 2zm-2-631zm-2-1zm4 632zm-2 0-46-42q21 21 46 42zm1 0z" fill="#5546CB"/><path d="M720 358a253 253 0 0 1-5 34c-9 43-57 184-179 309-14 15-30 29-47 43 106-160 138-291 143-376 7-119-52-204-95-229-26-15-39-22-45-24h1c105 25 184 79 214 156l7-2a43 43 0 0 1 7-22c-25-41-58-73-98-95s-67-29-107-35l-28-3h-1c23 30 63 137 58 280-2 63-20 182-57 350h-1c-37-168-52-287-54-350-5-144 29-251 52-280h1l-33 3c-30 4-56 12-81 23-53 23-93 61-123 112s-34 107-27 147c3 17 9 36 19 56a465 465 0 0 0 25 47l10 16 13-2h10c-28-53-42-95-47-117-26-122 63-245 228-286h1c-8 3-27 13-65 43s-80 85-78 214c1 85 43 213 149 374h1l2-3c96-81 163-162 189-199 39-54 65-108 73-148 2-12 3-27 2-44l-25 3zM486 746q-25-21-46-42a816 816 0 0 1-80-92l-6 5a1333 1333 0 0 0 132 129z" fill="#FDCD60"/><path d="M430 842h113v63.81H430z" fill="#FF8859"/><path d="m811 274-11 3-12 5v-13c-1-13-12-22-26-22s-26 11-26 25a24 24 0 0 0 1 5l3 12h-16c-14 0-26 11-26 25a24 24 0 0 0 14 22l4 2v2h9c23-2 49-7 90-14h2c15 0 18-13 18-25s-10-27-24-27z" fill="#FFF"/><path d="M811 254h-7c-7-17-23-29-43-29a47 47 0 0 0-22 6 282 282 0 0 0-47-60c-55-53-127-82-204-82s-150 29-204 82-85 123-85 198c0 47 20 101 59 161a43 43 0 0 0-10 19c-16 6-28 22-28 40a42 42 0 0 0 20 36c5 5 11 7 20 7h7l62-9c39 45 88 93 145 143h-60v20h23l-6 35h-21v105h153V822h-21l-6-35h23v-20h-59c90-80 159-153 204-218s72-127 72-179c0-6 0-13-1-19l44-8c23 0 37-18 37-45s-20-44-45-44zM264 614h-11v-2h-2a23 23 0 0 1-12-20c0-11 8-20 19-23l8-2v-8c1-12 11-22 24-22s19 6 23 15l3 8 8-2h3c13 0 24 10 24 23s-13 23-18 23h-2zm181 190 6 18h-9zm98 38v64H430v-64zm-12-20h-9l6-18zm-8-35-12 35h-49l-12-35zm228-389c-7 39-33 93-73 148-27 37-93 118-189 199l-2 3h-2a1333 1333 0 0 1-132-131l6-5c7-8 11-19 11-32 0-24-20-43-44-43a43 43 0 0 0-28-19h-9l-13 2-10-16a406 406 0 0 1-25-47c-9-21-16-40-19-56-7-39 2-104 27-147s70-89 123-112a270 270 0 0 1 81-23l33-3h2l28 3a269 269 0 0 1 107 35c40 23 73 55 98 95a43 43 0 0 0-7 22l-7 2c-17 7-29 23-29 41a44 44 0 0 0 23 39c4 6 12 7 18 7h9l25-3c1 14 1 29-2 41zm67-74h-2c-41 7-67 12-90 14h-9v-2l-4-2a24 24 0 0 1-14-22c0-14 12-25 26-25h13l-3-12a24 24 0 0 1-1-5c0-14 12-25 26-25s25 10 26 22v13l12-5 11-3c14 0 26 11 26 25s-2 27-17 27z" fill="#5546CB"/><path d="M332 603h1c5 0 18-3 18-23s-11-23-24-23h-3l-8 2-3-8c-4-9-12-15-23-15s-23 10-24 22v8l-8 2c-11 2-19 12-19 23a23 23 0 0 0 12 20h2v2h11l67-10z" fill="#FFF"/></svg><svg viewBox="0 0 1024 1024" class="cicon" id="passport" xmlns="http://www.w3.org/2000/svg"><path d="m847 202-66-17 66-18 17-65 18 65 65 18-65 17-18 65-17-65zM111 842l-41-10 41-10 9-41 10 41 41 10-41 10-10 41-9-41zM910 273l-25-6 25-6 6-25 6 25 25 6-25 6-6 25-6-25zM100 504l-24-5 24-6 6-24 5 24 24 6-24 5-5 24-6-24z" fill="#FDCD60"/><path d="M92 313a9 9 0 1 0 18 0 9 9 0 1 0-18 0ZM841 767a25 25 0 1 1 25-25 25 25 0 0 1-25 25zm0-36a10 10 0 1 0 10 10 10 10 0 0 0-10-10z" fill="#5546CB"/><path d="M551 743c-10 0-12 9-12 15s1 8 2 10a11 11 0 0 0 10 6c5 0 12-3 12-15s-1-16-12-16zm-202 2c-2-2-4-2-9-2h-4v13h5c5 0 11 0 11-6a6 6 0 0 0-3-5zm163 0c-2-2-4-2-9-2h-4v13h5c5 0 11 0 11-6a6 6 0 0 0-3-5zm95 4a5 5 0 0 0-2-5h-17v11h15a5 5 0 0 0 4-6z" fill="#FF8859"/><path d="M692 171H285a59 59 0 0 0-58 58v625a59 59 0 0 0 58 58h407a59 59 0 0 0 58-58V230a59 59 0 0 0-58-59zM353 762c-3 1-8 2-12 2h-6v17h-9v-45h27c3 1 7 5 7 12s-4 13-7 14zm39 18-4-10h-18l-4 10h-9l17-45h10l18 45zm42-1a26 26 0 0 1-11 2c-5 0-17 0-18-15h9c0 2 2 9 10 9s9-3 9-6-3-5-11-7-14-4-14-13 3-12 16-12 17 3 17 14h-9c0-2-1-6-8-6s-8 1-8 4 3 4 10 6 16 4 16 15a13 13 0 0 1-9 9zm42 0a26 26 0 0 1-11 2c-5 0-17 0-18-15h9c0 2 2 9 10 9s9-3 9-6-3-5-11-7-14-4-14-13 3-12 16-12 17 3 17 14h-9c0-2-1-6-8-6s-8 1-8 4 3 4 10 6 16 4 16 15a13 13 0 0 1-9 9zM354 419c0-73 60-133 133-133s133 60 133 133-60 133-133 133-133-60-133-133zm162 343c-3 1-8 2-12 2h-6v17h-9v-45h27c3 1 7 5 7 12s-4 13-7 14zm34 19c-17 0-22-13-22-23s8-23 22-23 22 10 22 23-6 23-21 23zm58-1-6-10c-5-8-6-9-12-9h-2v19h-9v-44h29c5 2 7 7 7 11s-2 9-7 11h-5c4 2 5 4 10 11l5 9zm47-37h-13v37h-9v-36h-13v-8h35z" fill="#FF8859"/><path d="M373 763h12l-6-17-6 17zm227-344a112 112 0 0 0-10-47 114 114 0 0 1 10 47z" fill="#FF8859"/><path d="M692 151H285a79 79 0 0 0-78 78v625a79 79 0 0 0 78 78h407a79 79 0 0 0 78-78V230a79 79 0 0 0-78-79zm58 703a59 59 0 0 1-58 58H285a59 59 0 0 1-58-58V230a59 59 0 0 1 58-58h407a59 59 0 0 1 58 58z" fill="#5546CB"/><path d="M353 737h-27v45h9v-18h6c4 0 9 0 12-2s7-5 7-13-4-10-7-12zm-13 19h-5v-12h4c5 0 7 0 9 2a6 6 0 0 1 2 5c1 5-5 5-10 5zm34-20-17 45h10l4-10h18l4 10h10l-18-45zm-1 27 6-17 6 17zm51-10c-7-2-10-3-10-6s5-4 8-4 8 4 8 6h9c0-10-8-14-17-14s-16 8-16 12 10 12 14 13 11 3 11 7-2 6-9 6-9-6-10-9h-9c2 15 14 15 18 15a26 26 0 0 0 11-2 13 13 0 0 0 7-12c1-8-8-10-15-12zm42 0c-7-2-10-3-10-6s5-4 8-4 8 4 8 6h9c0-10-8-14-17-14s-16 8-16 12 10 12 14 13 11 3 11 7-2 6-9 6-9-6-10-9h-9c2 15 14 15 18 15a26 26 0 0 0 11-2 13 13 0 0 0 7-12c1-8-8-10-15-12zm50-16h-27v45h9v-18h6c4 0 9 0 12-2s7-5 7-13-4-10-7-12zm-13 19h-5v-12h4c5 0 7 0 9 2a6 6 0 0 1 2 5c1 5-5 5-10 5zm47-21c-14 0-22 9-22 23s5 23 22 23 21-11 21-23-6-23-21-23zm0 38a11 11 0 0 1-10-6c-1-2-2-5-2-10s2-15 12-15 12 10 12 15-7 17-11 17zm54-12h5c4-2 7-6 7-11s-2-9-7-11h-30v45h9v-22h2c6 0 7 1 12 9l6 10h11l-5-9c-4-7-6-9-10-11zm-9-6h-7v-11h16a5 5 0 0 1 2 5 5 5 0 0 1-3 5zm25-11h13v37h9v-37h13v-8h-35v8z" fill="#5546CB"/><path d="M487 532a113 113 0 0 0 84-37H403a113 113 0 0 0 84 37zm-17-78h41l11 20h63a112 112 0 0 0 15-55 114 114 0 0 0-10-47 113 113 0 1 0-202 102h73zm67-93 7 5 9-3-3 9 5 7h-9l-5 7-3-9-9-3 7-5zm-11 44-3 9 5 7h-9l-5 7-3-9-9-3 7-5v-9l7 5zm-46-51 8-17 8 17 18 3-13 13 3 18-16-9-16 9 3-18-13-13zm-47 25-3 9-5-7h-9l5-7-3-9 9 3 7-5v9l7 5zm16 43 5-7-3-9 9 3 7-5v9l7 5-9 3-3 9-5-7z" fill="#FDCD60"/><path d="m472 387 16-8 17 8-3-18 13-13-19-2-8-17-8 17-18 2 13 13-3 18zm-37-26-8 6-8-3 3 8-6 8h9l6 7 2-9 9-2-7-6v-9zm31 59 9-3-8-5v-10l-7 6-8-3 2 9-5 7h9l5 7 3-8zm73-42 2 9 6-7h9l-6-8 3-8-8 3-8-6v9l-7 6 9 2zm-28 34-8 5 9 3 3 8 5-7h9l-5-7 2-9-8 3-7-6v10z" fill="#F97744"/><path d="M620 419c0-73-60-133-133-133s-133 59-133 133 60 133 133 133 133-60 133-133zm-232 55a113 113 0 1 1 211-56 112 112 0 0 1-15 55h-62l-11-20h-41l-9 20zm98 57a113 113 0 0 1-84-37h169a113 113 0 0 1-84 38z" fill="#5546CB"/></svg></svg>